%TF.GenerationSoftware,KiCad,Pcbnew,(6.0.0)*%
%TF.CreationDate,2022-10-20T13:44:37-04:00*%
%TF.ProjectId,TandyKey-A,54616e64-794b-4657-992d-412e6b696361,rev?*%
%TF.SameCoordinates,Original*%
%TF.FileFunction,Copper,L2,Bot*%
%TF.FilePolarity,Positive*%
%FSLAX46Y46*%
G04 Gerber Fmt 4.6, Leading zero omitted, Abs format (unit mm)*
G04 Created by KiCad (PCBNEW (6.0.0)) date 2022-10-20 13:44:37*
%MOMM*%
%LPD*%
G01*
G04 APERTURE LIST*
G04 Aperture macros list*
%AMRoundRect*
0 Rectangle with rounded corners*
0 $1 Rounding radius*
0 $2 $3 $4 $5 $6 $7 $8 $9 X,Y pos of 4 corners*
0 Add a 4 corners polygon primitive as box body*
4,1,4,$2,$3,$4,$5,$6,$7,$8,$9,$2,$3,0*
0 Add four circle primitives for the rounded corners*
1,1,$1+$1,$2,$3*
1,1,$1+$1,$4,$5*
1,1,$1+$1,$6,$7*
1,1,$1+$1,$8,$9*
0 Add four rect primitives between the rounded corners*
20,1,$1+$1,$2,$3,$4,$5,0*
20,1,$1+$1,$4,$5,$6,$7,0*
20,1,$1+$1,$6,$7,$8,$9,0*
20,1,$1+$1,$8,$9,$2,$3,0*%
G04 Aperture macros list end*
%TA.AperFunction,WasherPad*%
%ADD10C,2.499360*%
%TD*%
%TA.AperFunction,ComponentPad*%
%ADD11C,2.499360*%
%TD*%
%TA.AperFunction,ComponentPad*%
%ADD12R,1.700000X1.700000*%
%TD*%
%TA.AperFunction,ComponentPad*%
%ADD13O,1.700000X1.700000*%
%TD*%
%TA.AperFunction,ComponentPad*%
%ADD14R,2.159000X2.159000*%
%TD*%
%TA.AperFunction,ComponentPad*%
%ADD15O,2.159000X2.159000*%
%TD*%
%TA.AperFunction,ComponentPad*%
%ADD16R,1.050000X1.500000*%
%TD*%
%TA.AperFunction,ComponentPad*%
%ADD17O,1.050000X1.500000*%
%TD*%
%TA.AperFunction,ComponentPad*%
%ADD18R,1.600000X1.600000*%
%TD*%
%TA.AperFunction,ComponentPad*%
%ADD19O,1.600000X1.600000*%
%TD*%
%TA.AperFunction,ComponentPad*%
%ADD20C,2.700000*%
%TD*%
%TA.AperFunction,ComponentPad*%
%ADD21C,2.899999*%
%TD*%
%TA.AperFunction,ComponentPad*%
%ADD22C,1.600000*%
%TD*%
%TA.AperFunction,ComponentPad*%
%ADD23C,1.000000*%
%TD*%
%TA.AperFunction,SMDPad,CuDef*%
%ADD24RoundRect,0.250000X-0.350000X-0.450000X0.350000X-0.450000X0.350000X0.450000X-0.350000X0.450000X0*%
%TD*%
%TA.AperFunction,SMDPad,CuDef*%
%ADD25RoundRect,0.250000X-0.337500X-0.475000X0.337500X-0.475000X0.337500X0.475000X-0.337500X0.475000X0*%
%TD*%
%TA.AperFunction,SMDPad,CuDef*%
%ADD26RoundRect,0.250000X0.475000X-0.337500X0.475000X0.337500X-0.475000X0.337500X-0.475000X-0.337500X0*%
%TD*%
%TA.AperFunction,SMDPad,CuDef*%
%ADD27RoundRect,0.250000X0.650000X-0.412500X0.650000X0.412500X-0.650000X0.412500X-0.650000X-0.412500X0*%
%TD*%
%TA.AperFunction,SMDPad,CuDef*%
%ADD28RoundRect,0.250000X0.350000X0.450000X-0.350000X0.450000X-0.350000X-0.450000X0.350000X-0.450000X0*%
%TD*%
%TA.AperFunction,SMDPad,CuDef*%
%ADD29RoundRect,0.250000X-0.450000X0.350000X-0.450000X-0.350000X0.450000X-0.350000X0.450000X0.350000X0*%
%TD*%
%TA.AperFunction,ViaPad*%
%ADD30C,0.800000*%
%TD*%
%TA.AperFunction,Conductor*%
%ADD31C,0.635000*%
%TD*%
%TA.AperFunction,Conductor*%
%ADD32C,0.304800*%
%TD*%
%TA.AperFunction,Conductor*%
%ADD33C,0.250000*%
%TD*%
G04 APERTURE END LIST*
D10*
%TO.P,J1,*%
%TO.N,*%
X106349800Y-101203760D03*
X106349800Y-91201240D03*
D11*
%TO.P,J1,1,Pin_1*%
%TO.N,KBD_DTA*%
X116344700Y-103700580D03*
%TO.P,J1,2,Pin_2*%
%TO.N,Net-(J1-Pad2)*%
X116347240Y-96202500D03*
%TO.P,J1,3,Pin_3*%
%TO.N,GND*%
X116344700Y-88704420D03*
%TO.P,J1,4,Pin_4*%
%TO.N,KBD_CLK*%
X118846600Y-101198680D03*
%TO.P,J1,5,Pin_5*%
%TO.N,+5V*%
X118846600Y-91206320D03*
%TD*%
D12*
%TO.P,J5,1,Pin_1*%
%TO.N,GND*%
X113362500Y-84137500D03*
D13*
%TO.P,J5,2,Pin_2*%
%TO.N,BSL_TX*%
X115902500Y-84137500D03*
%TO.P,J5,3,Pin_3*%
%TO.N,Net-(J5-Pad3)*%
X118442500Y-84137500D03*
%TD*%
D14*
%TO.P,SW1,1,1*%
%TO.N,GND*%
X145465000Y-107632500D03*
D15*
%TO.P,SW1,2,2*%
%TO.N,_RST*%
X139065000Y-107632500D03*
%TD*%
D16*
%TO.P,U2,1,VO*%
%TO.N,+3V3*%
X138430000Y-85132500D03*
D17*
%TO.P,U2,2,GND*%
%TO.N,GND*%
X139700000Y-85132500D03*
%TO.P,U2,3,VI*%
%TO.N,+5V*%
X140970000Y-85132500D03*
%TD*%
D18*
%TO.P,U1,1,DVCC*%
%TO.N,+3V3*%
X122247508Y-84777504D03*
D19*
%TO.P,U1,2,TA0CLK/ACLK/CA0/P1.0*%
%TO.N,KBD_BSY*%
X122247508Y-87317504D03*
%TO.P,U1,3,TA0.0/UCA0RXD/UCA0SOMI/P1.1*%
%TO.N,BSL_TX*%
X122247508Y-89857504D03*
%TO.P,U1,4,TA0.1/UCA0TXD/UCA0SIMO/P1.2*%
%TO.N,Net-(J5-Pad3)*%
X122247508Y-92397504D03*
%TO.P,U1,5,P1.3*%
%TO.N,KBD_CLK*%
X122247508Y-94937504D03*
%TO.P,U1,6,TCK/SMCLK/UCB0STE/UCA0CLK/P1.4*%
%TO.N,KBD_DTA*%
X122247508Y-97477504D03*
%TO.P,U1,7,TMS/TA0.0/UCB0CLK/UCA0STE/P1.5*%
%TO.N,BSL_RX*%
X122247508Y-100017504D03*
%TO.P,U1,8,P2.0/TA1.0*%
%TO.N,Net-(R8-Pad1)*%
X122247508Y-102557504D03*
%TO.P,U1,9,P2.1/TA1.1*%
%TO.N,unconnected-(U1-Pad9)*%
X122247508Y-105097504D03*
%TO.P,U1,10,P2.2/TA1.1*%
%TO.N,unconnected-(U1-Pad10)*%
X122247508Y-107637504D03*
%TO.P,U1,11,P2.3/TA1.0*%
%TO.N,unconnected-(U1-Pad11)*%
X129867508Y-107637504D03*
%TO.P,U1,12,P2.4/TA1.2*%
%TO.N,unconnected-(U1-Pad12)*%
X129867508Y-105097504D03*
%TO.P,U1,13,P2.5/TA1.2*%
%TO.N,unconnected-(U1-Pad13)*%
X129867508Y-102557504D03*
%TO.P,U1,14,TDI/TCLK/TA0.1/UCB0SOMI/UCB0SCL/P1.6*%
%TO.N,PS2_DTA*%
X129867508Y-100017504D03*
%TO.P,U1,15,TDO/TDI/UCB0SIMO/UCB0SDA/P1.7*%
%TO.N,PS2_CLK*%
X129867508Y-97477504D03*
%TO.P,U1,16,~{RST}/NMI/SBWTDIO*%
%TO.N,_RST*%
X129867508Y-94937504D03*
%TO.P,U1,17,TEST/SBWTCK*%
%TO.N,TEST*%
X129867508Y-92397504D03*
%TO.P,U1,18,P2.7/XOUT*%
%TO.N,Net-(R3-Pad1)*%
X129867508Y-89857504D03*
%TO.P,U1,19,P2.6/XIN/TA0.1*%
%TO.N,unconnected-(U1-Pad19)*%
X129867508Y-87317504D03*
%TO.P,U1,20,DVSS*%
%TO.N,GND*%
X129867508Y-84777504D03*
%TD*%
D20*
%TO.P,J2,0*%
%TO.N,GND*%
X143625000Y-103520001D03*
X143625000Y-89519999D03*
D21*
X144425000Y-96520000D03*
D22*
%TO.P,J2,1*%
%TO.N,PS2_DTA*%
X140625000Y-95220000D03*
%TO.P,J2,2*%
%TO.N,unconnected-(J2-Pad2)*%
X140625000Y-97820000D03*
%TO.P,J2,3*%
%TO.N,GND*%
X140625000Y-93120000D03*
%TO.P,J2,4*%
%TO.N,+5V*%
X140625000Y-99920000D03*
%TO.P,J2,5*%
%TO.N,PS2_CLK*%
X138125000Y-93120000D03*
%TO.P,J2,6*%
%TO.N,unconnected-(J2-Pad6)*%
X138125000Y-99920000D03*
D23*
%TO.P,J2,M1*%
%TO.N,N/C*%
X145725000Y-94020000D03*
%TO.P,J2,M2*%
X145725000Y-99020000D03*
%TO.P,J2,M3*%
X138125000Y-91520000D03*
%TO.P,J2,M4*%
X138125000Y-101520000D03*
%TD*%
D12*
%TO.P,D1,1,Pin_1*%
%TO.N,GND*%
X133985000Y-84772500D03*
D13*
%TO.P,D1,2,Pin_2*%
%TO.N,Net-(D1-Pad2)*%
X133985000Y-87312500D03*
%TD*%
D12*
%TO.P,J3,1,Pin_1*%
%TO.N,_RST*%
X133667500Y-107627500D03*
D13*
%TO.P,J3,2,Pin_2*%
%TO.N,BSL_RX*%
X133667500Y-105087500D03*
%TO.P,J3,3,Pin_3*%
%TO.N,BSL_TX*%
X133667500Y-102547500D03*
%TO.P,J3,4,Pin_4*%
%TO.N,TEST*%
X133667500Y-100007500D03*
%TO.P,J3,5,Pin_5*%
%TO.N,GND*%
X133667500Y-97467500D03*
%TD*%
D12*
%TO.P,J4,1,Pin_1*%
%TO.N,GND*%
X146367500Y-83820000D03*
D13*
%TO.P,J4,2,Pin_2*%
%TO.N,+5V*%
X146367500Y-86360000D03*
%TD*%
D12*
%TO.P,D2,1,Pin_1*%
%TO.N,GND*%
X115882500Y-107632500D03*
D13*
%TO.P,D2,2,Pin_2*%
%TO.N,Net-(D2-Pad2)*%
X118422500Y-107632500D03*
%TD*%
D24*
%TO.P,R1,1*%
%TO.N,Net-(J1-Pad2)*%
X117745000Y-93980000D03*
%TO.P,R1,2*%
%TO.N,KBD_BSY*%
X119745000Y-93980000D03*
%TD*%
D25*
%TO.P,C1,1*%
%TO.N,+3V3*%
X125010000Y-84772500D03*
%TO.P,C1,2*%
%TO.N,GND*%
X127085000Y-84772500D03*
%TD*%
D26*
%TO.P,C4,1*%
%TO.N,_RST*%
X127270000Y-92160000D03*
%TO.P,C4,2*%
%TO.N,GND*%
X127270000Y-90085000D03*
%TD*%
D27*
%TO.P,C2,1*%
%TO.N,+5V*%
X143192500Y-86652500D03*
%TO.P,C2,2*%
%TO.N,GND*%
X143192500Y-83527500D03*
%TD*%
D28*
%TO.P,R7,1*%
%TO.N,PS2_DTA*%
X127317500Y-100012500D03*
%TO.P,R7,2*%
%TO.N,+3V3*%
X125317500Y-100012500D03*
%TD*%
D24*
%TO.P,R2,1*%
%TO.N,KBD_BSY*%
X124375008Y-87312500D03*
%TO.P,R2,2*%
%TO.N,GND*%
X126375008Y-87312500D03*
%TD*%
%TO.P,R4,1*%
%TO.N,+3V3*%
X125317500Y-94932500D03*
%TO.P,R4,2*%
%TO.N,_RST*%
X127317500Y-94932500D03*
%TD*%
%TO.P,R3,1*%
%TO.N,Net-(R3-Pad1)*%
X132032500Y-89852500D03*
%TO.P,R3,2*%
%TO.N,Net-(D1-Pad2)*%
X134032500Y-89852500D03*
%TD*%
D28*
%TO.P,R6,1*%
%TO.N,PS2_CLK*%
X127317500Y-97472500D03*
%TO.P,R6,2*%
%TO.N,+3V3*%
X125317500Y-97472500D03*
%TD*%
D29*
%TO.P,R8,1*%
%TO.N,Net-(R8-Pad1)*%
X124777500Y-104410000D03*
%TO.P,R8,2*%
%TO.N,Net-(D2-Pad2)*%
X124777500Y-106410000D03*
%TD*%
D30*
%TO.N,GND*%
X127270002Y-88629998D03*
%TO.N,Net-(J5-Pad3)*%
X120650000Y-88582500D03*
%TO.N,BSL_TX*%
X123825000Y-93662500D03*
%TD*%
D31*
%TO.N,+3V3*%
X122247508Y-84777504D02*
X125004996Y-84777504D01*
X122247508Y-82877508D02*
X122247508Y-84777504D01*
X138430000Y-82867500D02*
X138430000Y-85132494D01*
D32*
X125326928Y-100003072D02*
X125326928Y-85089428D01*
D31*
X122237500Y-82867500D02*
X138430000Y-82867500D01*
%TO.N,GND*%
X129867508Y-84777504D02*
X127089992Y-84777504D01*
X139700000Y-83502500D02*
X143167506Y-83502500D01*
D33*
X145415000Y-83502500D02*
X146050000Y-83502500D01*
D31*
X139700000Y-85132494D02*
X139700000Y-83502500D01*
X143192500Y-83527494D02*
X145390006Y-83527494D01*
D32*
X126375008Y-87312500D02*
X127222500Y-87312500D01*
D31*
X127270002Y-88629998D02*
X127270002Y-87265002D01*
X127270002Y-87265002D02*
X127270002Y-84957488D01*
D33*
X145390000Y-83527500D02*
X145415000Y-83502500D01*
D31*
X127270002Y-90085012D02*
X127270002Y-88629998D01*
D32*
X127222500Y-87312500D02*
X127270000Y-87265000D01*
D31*
%TO.N,+5V*%
X143192500Y-86652506D02*
X145707506Y-86652506D01*
X140624992Y-99919993D02*
X142240000Y-98305010D01*
X140970000Y-86677500D02*
X140970000Y-85132500D01*
X113431320Y-91206320D02*
X118846600Y-91206320D01*
D33*
X140995000Y-86652500D02*
X140970000Y-86677500D01*
D31*
X113497030Y-91272030D02*
X113497030Y-109387970D01*
X141287500Y-109537500D02*
X141287500Y-106362500D01*
X143192500Y-86652506D02*
X140994994Y-86652506D01*
X140624992Y-105699992D02*
X140624992Y-99919993D01*
X142240000Y-91757500D02*
X140970000Y-90487500D01*
X141287500Y-106362500D02*
X140624992Y-105699992D01*
X113497030Y-109387970D02*
X113646560Y-109537500D01*
X142240000Y-98305010D02*
X142240000Y-91757500D01*
X140970000Y-90487500D02*
X140970000Y-86677500D01*
X113646560Y-109537500D02*
X141287500Y-109537500D01*
D32*
%TO.N,Net-(D1-Pad2)*%
X134032500Y-89852500D02*
X134032500Y-87360000D01*
%TO.N,KBD_CLK*%
X121290004Y-94937504D02*
X121285000Y-94932500D01*
X118846600Y-97370900D02*
X118846600Y-101198680D01*
X122247508Y-94937504D02*
X121290004Y-94937504D01*
X121285000Y-94932500D02*
X118846600Y-97370900D01*
%TO.N,KBD_DTA*%
X121285000Y-97472500D02*
X120650000Y-98107500D01*
X121290004Y-97477504D02*
X121285000Y-97472500D01*
X120650000Y-102235000D02*
X119184420Y-103700580D01*
X119184420Y-103700580D02*
X116344700Y-103700580D01*
X120650000Y-98107500D02*
X120650000Y-102235000D01*
X122247508Y-97477504D02*
X121290004Y-97477504D01*
%TO.N,PS2_DTA*%
X127317500Y-100012500D02*
X129862504Y-100012500D01*
X131762500Y-96837500D02*
X133380000Y-95220000D01*
X133380000Y-95220000D02*
X140625000Y-95220000D01*
X129867508Y-100017504D02*
X131762500Y-98122512D01*
X131762500Y-98122512D02*
X131762500Y-96837500D01*
%TO.N,PS2_CLK*%
X127317500Y-97472500D02*
X129862504Y-97472500D01*
X134210000Y-93120000D02*
X138020000Y-93120000D01*
X129867508Y-97462492D02*
X134210000Y-93120000D01*
%TO.N,_RST*%
X127317500Y-94932500D02*
X126365000Y-94932500D01*
X136207500Y-102552500D02*
X136207500Y-107632500D01*
X136202500Y-107627500D02*
X136207500Y-107632500D01*
X139065000Y-107632500D02*
X136207500Y-107632500D01*
X126682500Y-101282500D02*
X134937500Y-101282500D01*
X134937500Y-101282500D02*
X136207500Y-102552500D01*
X126269420Y-95028080D02*
X126269420Y-100869420D01*
X126269420Y-100869420D02*
X126682500Y-101282500D01*
X133667500Y-107627500D02*
X136202500Y-107627500D01*
X127270000Y-92160000D02*
X127270000Y-94885000D01*
X127317500Y-94932500D02*
X129862504Y-94932500D01*
X126365000Y-94932500D02*
X126269420Y-95028080D01*
%TO.N,KBD_BSY*%
X119745000Y-92980000D02*
X121602500Y-91122500D01*
X119745000Y-93980000D02*
X119745000Y-92980000D01*
X123190000Y-91122500D02*
X124375008Y-89937492D01*
X122247508Y-87317504D02*
X124370004Y-87317504D01*
X121602500Y-91122500D02*
X123190000Y-91122500D01*
X124375008Y-89937492D02*
X124375008Y-87312500D01*
%TO.N,Net-(R3-Pad1)*%
X129867508Y-89857504D02*
X132027496Y-89857504D01*
%TO.N,Net-(D2-Pad2)*%
X118422500Y-107632500D02*
X120110000Y-107632500D01*
X120110000Y-107632500D02*
X121332500Y-106410000D01*
X124777500Y-106410000D02*
X121332500Y-106410000D01*
%TO.N,Net-(J5-Pad3)*%
X120650000Y-88582500D02*
X118427500Y-86360000D01*
X118442500Y-84137500D02*
X118442500Y-85075000D01*
X118427500Y-86360000D02*
X118427500Y-85090000D01*
X118442500Y-85075000D02*
X118427500Y-85090000D01*
X118427500Y-85090000D02*
X118427500Y-84772500D01*
%TO.N,BSL_TX*%
X131127500Y-103822500D02*
X132402500Y-102547500D01*
X115902500Y-85392500D02*
X115887500Y-85407500D01*
X132402500Y-102547500D02*
X133667500Y-102547500D01*
X127476257Y-103822500D02*
X131127500Y-103822500D01*
X125571256Y-101917500D02*
X127476257Y-103822500D01*
X115887500Y-85407500D02*
X115887500Y-84772500D01*
X123825000Y-100647500D02*
X125095000Y-101917500D01*
X122247508Y-89857504D02*
X120337504Y-89857504D01*
X123825000Y-93662500D02*
X123825000Y-100647500D01*
X115902500Y-84137500D02*
X115902500Y-85392500D01*
X120337504Y-89857504D02*
X115887500Y-85407500D01*
X125095000Y-101917500D02*
X125571256Y-101917500D01*
%TO.N,BSL_RX*%
X128905000Y-106362500D02*
X125412500Y-102870000D01*
X123190000Y-100959996D02*
X122247508Y-100017504D01*
X123190000Y-101282500D02*
X123190000Y-100959996D01*
X131127500Y-106362500D02*
X128905000Y-106362500D01*
X133667500Y-105087500D02*
X132402500Y-105087500D01*
X124777500Y-102870000D02*
X123190000Y-101282500D01*
X125412500Y-102870000D02*
X124777500Y-102870000D01*
X132402500Y-105087500D02*
X131127500Y-106362500D01*
%TO.N,Net-(R8-Pad1)*%
X123507500Y-102557504D02*
X124777500Y-103827504D01*
X124777500Y-103827504D02*
X124777500Y-104410000D01*
X122247508Y-102557504D02*
X123507500Y-102557504D01*
%TO.N,Net-(J1-Pad2)*%
X117745000Y-94804740D02*
X116347240Y-96202500D01*
X117745000Y-93980000D02*
X117745000Y-94804740D01*
%TD*%
M02*
