%TF.GenerationSoftware,KiCad,Pcbnew,(6.0.0)*%
%TF.CreationDate,2022-10-20T13:45:59-04:00*%
%TF.ProjectId,TandyKey-AB,54616e64-794b-4657-992d-41422e6b6963,rev?*%
%TF.SameCoordinates,Original*%
%TF.FileFunction,Legend,Bot*%
%TF.FilePolarity,Positive*%
%FSLAX46Y46*%
G04 Gerber Fmt 4.6, Leading zero omitted, Abs format (unit mm)*
G04 Created by KiCad (PCBNEW (6.0.0)) date 2022-10-20 13:45:59*
%MOMM*%
%LPD*%
G01*
G04 APERTURE LIST*
%ADD10C,0.150000*%
%ADD11C,0.120000*%
G04 APERTURE END LIST*
D10*
%TO.C,R1*%
X115387380Y-87145833D02*
X114911190Y-86812500D01*
X115387380Y-86574404D02*
X114387380Y-86574404D01*
X114387380Y-86955357D01*
X114435000Y-87050595D01*
X114482619Y-87098214D01*
X114577857Y-87145833D01*
X114720714Y-87145833D01*
X114815952Y-87098214D01*
X114863571Y-87050595D01*
X114911190Y-86955357D01*
X114911190Y-86574404D01*
X115387380Y-88098214D02*
X115387380Y-87526785D01*
X115387380Y-87812500D02*
X114387380Y-87812500D01*
X114530238Y-87717261D01*
X114625476Y-87622023D01*
X114673095Y-87526785D01*
%TO.C,C1*%
X123991666Y-86399642D02*
X124039285Y-86447261D01*
X124182142Y-86494880D01*
X124277380Y-86494880D01*
X124420238Y-86447261D01*
X124515476Y-86352023D01*
X124563095Y-86256785D01*
X124610714Y-86066309D01*
X124610714Y-85923452D01*
X124563095Y-85732976D01*
X124515476Y-85637738D01*
X124420238Y-85542500D01*
X124277380Y-85494880D01*
X124182142Y-85494880D01*
X124039285Y-85542500D01*
X123991666Y-85590119D01*
X123039285Y-86494880D02*
X123610714Y-86494880D01*
X123325000Y-86494880D02*
X123325000Y-85494880D01*
X123420238Y-85637738D01*
X123515476Y-85732976D01*
X123610714Y-85780595D01*
%TO.C,C4*%
X125769642Y-90955833D02*
X125817261Y-90908214D01*
X125864880Y-90765357D01*
X125864880Y-90670119D01*
X125817261Y-90527261D01*
X125722023Y-90432023D01*
X125626785Y-90384404D01*
X125436309Y-90336785D01*
X125293452Y-90336785D01*
X125102976Y-90384404D01*
X125007738Y-90432023D01*
X124912500Y-90527261D01*
X124864880Y-90670119D01*
X124864880Y-90765357D01*
X124912500Y-90908214D01*
X124960119Y-90955833D01*
X125198214Y-91812976D02*
X125864880Y-91812976D01*
X124817261Y-91574880D02*
X125531547Y-91336785D01*
X125531547Y-91955833D01*
%TO.C,C2*%
X141644642Y-87463333D02*
X141692261Y-87415714D01*
X141739880Y-87272857D01*
X141739880Y-87177619D01*
X141692261Y-87034761D01*
X141597023Y-86939523D01*
X141501785Y-86891904D01*
X141311309Y-86844285D01*
X141168452Y-86844285D01*
X140977976Y-86891904D01*
X140882738Y-86939523D01*
X140787500Y-87034761D01*
X140739880Y-87177619D01*
X140739880Y-87272857D01*
X140787500Y-87415714D01*
X140835119Y-87463333D01*
X140835119Y-87844285D02*
X140787500Y-87891904D01*
X140739880Y-87987142D01*
X140739880Y-88225238D01*
X140787500Y-88320476D01*
X140835119Y-88368095D01*
X140930357Y-88415714D01*
X141025595Y-88415714D01*
X141168452Y-88368095D01*
X141739880Y-87796666D01*
X141739880Y-88415714D01*
%TO.C,R7*%
X123991666Y-102052380D02*
X124325000Y-101576190D01*
X124563095Y-102052380D02*
X124563095Y-101052380D01*
X124182142Y-101052380D01*
X124086904Y-101100000D01*
X124039285Y-101147619D01*
X123991666Y-101242857D01*
X123991666Y-101385714D01*
X124039285Y-101480952D01*
X124086904Y-101528571D01*
X124182142Y-101576190D01*
X124563095Y-101576190D01*
X123658333Y-101052380D02*
X122991666Y-101052380D01*
X123420238Y-102052380D01*
%TO.C,R2*%
X125579166Y-89352380D02*
X125912500Y-88876190D01*
X126150595Y-89352380D02*
X126150595Y-88352380D01*
X125769642Y-88352380D01*
X125674404Y-88400000D01*
X125626785Y-88447619D01*
X125579166Y-88542857D01*
X125579166Y-88685714D01*
X125626785Y-88780952D01*
X125674404Y-88828571D01*
X125769642Y-88876190D01*
X126150595Y-88876190D01*
X125198214Y-88447619D02*
X125150595Y-88400000D01*
X125055357Y-88352380D01*
X124817261Y-88352380D01*
X124722023Y-88400000D01*
X124674404Y-88447619D01*
X124626785Y-88542857D01*
X124626785Y-88638095D01*
X124674404Y-88780952D01*
X125245833Y-89352380D01*
X124626785Y-89352380D01*
%TO.C,R4*%
X123991666Y-96654880D02*
X124325000Y-96178690D01*
X124563095Y-96654880D02*
X124563095Y-95654880D01*
X124182142Y-95654880D01*
X124086904Y-95702500D01*
X124039285Y-95750119D01*
X123991666Y-95845357D01*
X123991666Y-95988214D01*
X124039285Y-96083452D01*
X124086904Y-96131071D01*
X124182142Y-96178690D01*
X124563095Y-96178690D01*
X123134523Y-95988214D02*
X123134523Y-96654880D01*
X123372619Y-95607261D02*
X123610714Y-96321547D01*
X122991666Y-96321547D01*
%TO.C,R3*%
X133199166Y-91954880D02*
X133532500Y-91478690D01*
X133770595Y-91954880D02*
X133770595Y-90954880D01*
X133389642Y-90954880D01*
X133294404Y-91002500D01*
X133246785Y-91050119D01*
X133199166Y-91145357D01*
X133199166Y-91288214D01*
X133246785Y-91383452D01*
X133294404Y-91431071D01*
X133389642Y-91478690D01*
X133770595Y-91478690D01*
X132865833Y-90954880D02*
X132246785Y-90954880D01*
X132580119Y-91335833D01*
X132437261Y-91335833D01*
X132342023Y-91383452D01*
X132294404Y-91431071D01*
X132246785Y-91526309D01*
X132246785Y-91764404D01*
X132294404Y-91859642D01*
X132342023Y-91907261D01*
X132437261Y-91954880D01*
X132722976Y-91954880D01*
X132818214Y-91907261D01*
X132865833Y-91859642D01*
%TO.C,R6*%
X123991666Y-99194880D02*
X124325000Y-98718690D01*
X124563095Y-99194880D02*
X124563095Y-98194880D01*
X124182142Y-98194880D01*
X124086904Y-98242500D01*
X124039285Y-98290119D01*
X123991666Y-98385357D01*
X123991666Y-98528214D01*
X124039285Y-98623452D01*
X124086904Y-98671071D01*
X124182142Y-98718690D01*
X124563095Y-98718690D01*
X123134523Y-98194880D02*
X123325000Y-98194880D01*
X123420238Y-98242500D01*
X123467857Y-98290119D01*
X123563095Y-98432976D01*
X123610714Y-98623452D01*
X123610714Y-99004404D01*
X123563095Y-99099642D01*
X123515476Y-99147261D01*
X123420238Y-99194880D01*
X123229761Y-99194880D01*
X123134523Y-99147261D01*
X123086904Y-99099642D01*
X123039285Y-99004404D01*
X123039285Y-98766309D01*
X123086904Y-98671071D01*
X123134523Y-98623452D01*
X123229761Y-98575833D01*
X123420238Y-98575833D01*
X123515476Y-98623452D01*
X123563095Y-98671071D01*
X123610714Y-98766309D01*
%TO.C,R8*%
X125229880Y-108100833D02*
X124753690Y-107767500D01*
X125229880Y-107529404D02*
X124229880Y-107529404D01*
X124229880Y-107910357D01*
X124277500Y-108005595D01*
X124325119Y-108053214D01*
X124420357Y-108100833D01*
X124563214Y-108100833D01*
X124658452Y-108053214D01*
X124706071Y-108005595D01*
X124753690Y-107910357D01*
X124753690Y-107529404D01*
X124658452Y-108672261D02*
X124610833Y-108577023D01*
X124563214Y-108529404D01*
X124467976Y-108481785D01*
X124420357Y-108481785D01*
X124325119Y-108529404D01*
X124277500Y-108577023D01*
X124229880Y-108672261D01*
X124229880Y-108862738D01*
X124277500Y-108957976D01*
X124325119Y-109005595D01*
X124420357Y-109053214D01*
X124467976Y-109053214D01*
X124563214Y-109005595D01*
X124610833Y-108957976D01*
X124658452Y-108862738D01*
X124658452Y-108672261D01*
X124706071Y-108577023D01*
X124753690Y-108529404D01*
X124848928Y-108481785D01*
X125039404Y-108481785D01*
X125134642Y-108529404D01*
X125182261Y-108577023D01*
X125229880Y-108672261D01*
X125229880Y-108862738D01*
X125182261Y-108957976D01*
X125134642Y-109005595D01*
X125039404Y-109053214D01*
X124848928Y-109053214D01*
X124753690Y-109005595D01*
X124706071Y-108957976D01*
X124658452Y-108862738D01*
D11*
%TO.C,R1*%
X114200000Y-90397064D02*
X114200000Y-89942936D01*
X115670000Y-90397064D02*
X115670000Y-89942936D01*
%TO.C,C1*%
X125786248Y-85507500D02*
X126308752Y-85507500D01*
X125786248Y-84037500D02*
X126308752Y-84037500D01*
%TO.C,C4*%
X128005000Y-91383752D02*
X128005000Y-90861248D01*
X126535000Y-91383752D02*
X126535000Y-90861248D01*
%TO.C,C2*%
X142282500Y-85801252D02*
X142282500Y-84378748D01*
X144102500Y-85801252D02*
X144102500Y-84378748D01*
%TO.C,R7*%
X126544564Y-99277500D02*
X126090436Y-99277500D01*
X126544564Y-100747500D02*
X126090436Y-100747500D01*
%TO.C,R2*%
X125147944Y-88047500D02*
X125602072Y-88047500D01*
X125147944Y-86577500D02*
X125602072Y-86577500D01*
%TO.C,R4*%
X126090436Y-94197500D02*
X126544564Y-94197500D01*
X126090436Y-95667500D02*
X126544564Y-95667500D01*
%TO.C,R3*%
X132805436Y-89117500D02*
X133259564Y-89117500D01*
X132805436Y-90587500D02*
X133259564Y-90587500D01*
%TO.C,R6*%
X126544564Y-98207500D02*
X126090436Y-98207500D01*
X126544564Y-96737500D02*
X126090436Y-96737500D01*
%TO.C,R8*%
X125512500Y-105182936D02*
X125512500Y-105637064D01*
X124042500Y-105182936D02*
X124042500Y-105637064D01*
%TD*%
M02*
