%TF.GenerationSoftware,KiCad,Pcbnew,(6.0.0)*%
%TF.CreationDate,2022-10-20T13:45:59-04:00*%
%TF.ProjectId,TandyKey-AB,54616e64-794b-4657-992d-41422e6b6963,rev?*%
%TF.SameCoordinates,Original*%
%TF.FileFunction,Legend,Top*%
%TF.FilePolarity,Positive*%
%FSLAX46Y46*%
G04 Gerber Fmt 4.6, Leading zero omitted, Abs format (unit mm)*
G04 Created by KiCad (PCBNEW (6.0.0)) date 2022-10-20 13:45:59*
%MOMM*%
%LPD*%
G01*
G04 APERTURE LIST*
%ADD10C,0.150000*%
%ADD11C,0.120000*%
G04 APERTURE END LIST*
D10*
%TO.C,J1*%
X114601666Y-103909880D02*
X114601666Y-104624166D01*
X114554047Y-104767023D01*
X114458809Y-104862261D01*
X114315952Y-104909880D01*
X114220714Y-104909880D01*
X115601666Y-104909880D02*
X115030238Y-104909880D01*
X115315952Y-104909880D02*
X115315952Y-103909880D01*
X115220714Y-104052738D01*
X115125476Y-104147976D01*
X115030238Y-104195595D01*
%TO.C,J5*%
X115236666Y-86447380D02*
X115236666Y-87161666D01*
X115189047Y-87304523D01*
X115093809Y-87399761D01*
X114950952Y-87447380D01*
X114855714Y-87447380D01*
X116189047Y-86447380D02*
X115712857Y-86447380D01*
X115665238Y-86923571D01*
X115712857Y-86875952D01*
X115808095Y-86828333D01*
X116046190Y-86828333D01*
X116141428Y-86875952D01*
X116189047Y-86923571D01*
X116236666Y-87018809D01*
X116236666Y-87256904D01*
X116189047Y-87352142D01*
X116141428Y-87399761D01*
X116046190Y-87447380D01*
X115808095Y-87447380D01*
X115712857Y-87399761D01*
X115665238Y-87352142D01*
%TO.C,SW1*%
X148199761Y-108965833D02*
X148247380Y-108822976D01*
X148247380Y-108584880D01*
X148199761Y-108489642D01*
X148152142Y-108442023D01*
X148056904Y-108394404D01*
X147961666Y-108394404D01*
X147866428Y-108442023D01*
X147818809Y-108489642D01*
X147771190Y-108584880D01*
X147723571Y-108775357D01*
X147675952Y-108870595D01*
X147628333Y-108918214D01*
X147533095Y-108965833D01*
X147437857Y-108965833D01*
X147342619Y-108918214D01*
X147295000Y-108870595D01*
X147247380Y-108775357D01*
X147247380Y-108537261D01*
X147295000Y-108394404D01*
X147247380Y-108061071D02*
X148247380Y-107822976D01*
X147533095Y-107632500D01*
X148247380Y-107442023D01*
X147247380Y-107203928D01*
X148247380Y-106299166D02*
X148247380Y-106870595D01*
X148247380Y-106584880D02*
X147247380Y-106584880D01*
X147390238Y-106680119D01*
X147485476Y-106775357D01*
X147533095Y-106870595D01*
%TO.C,U2*%
X138620595Y-87717380D02*
X138620595Y-88526904D01*
X138668214Y-88622142D01*
X138715833Y-88669761D01*
X138811071Y-88717380D01*
X139001547Y-88717380D01*
X139096785Y-88669761D01*
X139144404Y-88622142D01*
X139192023Y-88526904D01*
X139192023Y-87717380D01*
X139620595Y-87812619D02*
X139668214Y-87765000D01*
X139763452Y-87717380D01*
X140001547Y-87717380D01*
X140096785Y-87765000D01*
X140144404Y-87812619D01*
X140192023Y-87907857D01*
X140192023Y-88003095D01*
X140144404Y-88145952D01*
X139572976Y-88717380D01*
X140192023Y-88717380D01*
%TO.C,U1*%
X125295603Y-81899884D02*
X125295603Y-82709408D01*
X125343222Y-82804646D01*
X125390841Y-82852265D01*
X125486079Y-82899884D01*
X125676555Y-82899884D01*
X125771793Y-82852265D01*
X125819412Y-82804646D01*
X125867031Y-82709408D01*
X125867031Y-81899884D01*
X126867031Y-82899884D02*
X126295603Y-82899884D01*
X126581317Y-82899884D02*
X126581317Y-81899884D01*
X126486079Y-82042742D01*
X126390841Y-82137980D01*
X126295603Y-82185599D01*
%TO.C,J2*%
X140104880Y-105108333D02*
X140819166Y-105108333D01*
X140962023Y-105155952D01*
X141057261Y-105251190D01*
X141104880Y-105394047D01*
X141104880Y-105489285D01*
X140200119Y-104679761D02*
X140152500Y-104632142D01*
X140104880Y-104536904D01*
X140104880Y-104298809D01*
X140152500Y-104203571D01*
X140200119Y-104155952D01*
X140295357Y-104108333D01*
X140390595Y-104108333D01*
X140533452Y-104155952D01*
X141104880Y-104727380D01*
X141104880Y-104108333D01*
%TO.C,D1*%
X133246904Y-82894880D02*
X133246904Y-81894880D01*
X133485000Y-81894880D01*
X133627857Y-81942500D01*
X133723095Y-82037738D01*
X133770714Y-82132976D01*
X133818333Y-82323452D01*
X133818333Y-82466309D01*
X133770714Y-82656785D01*
X133723095Y-82752023D01*
X133627857Y-82847261D01*
X133485000Y-82894880D01*
X133246904Y-82894880D01*
X134770714Y-82894880D02*
X134199285Y-82894880D01*
X134485000Y-82894880D02*
X134485000Y-81894880D01*
X134389761Y-82037738D01*
X134294523Y-82132976D01*
X134199285Y-82180595D01*
%TO.C,J3*%
X133334166Y-109409880D02*
X133334166Y-110124166D01*
X133286547Y-110267023D01*
X133191309Y-110362261D01*
X133048452Y-110409880D01*
X132953214Y-110409880D01*
X133715119Y-109409880D02*
X134334166Y-109409880D01*
X134000833Y-109790833D01*
X134143690Y-109790833D01*
X134238928Y-109838452D01*
X134286547Y-109886071D01*
X134334166Y-109981309D01*
X134334166Y-110219404D01*
X134286547Y-110314642D01*
X134238928Y-110362261D01*
X134143690Y-110409880D01*
X133857976Y-110409880D01*
X133762738Y-110362261D01*
X133715119Y-110314642D01*
%TO.C,J4*%
X143494166Y-83272380D02*
X143494166Y-83986666D01*
X143446547Y-84129523D01*
X143351309Y-84224761D01*
X143208452Y-84272380D01*
X143113214Y-84272380D01*
X144398928Y-83605714D02*
X144398928Y-84272380D01*
X144160833Y-83224761D02*
X143922738Y-83939047D01*
X144541785Y-83939047D01*
%TO.C,D2*%
X117371904Y-110414880D02*
X117371904Y-109414880D01*
X117610000Y-109414880D01*
X117752857Y-109462500D01*
X117848095Y-109557738D01*
X117895714Y-109652976D01*
X117943333Y-109843452D01*
X117943333Y-109986309D01*
X117895714Y-110176785D01*
X117848095Y-110272023D01*
X117752857Y-110367261D01*
X117610000Y-110414880D01*
X117371904Y-110414880D01*
X118324285Y-109510119D02*
X118371904Y-109462500D01*
X118467142Y-109414880D01*
X118705238Y-109414880D01*
X118800476Y-109462500D01*
X118848095Y-109510119D01*
X118895714Y-109605357D01*
X118895714Y-109700595D01*
X118848095Y-109843452D01*
X118276666Y-110414880D01*
X118895714Y-110414880D01*
D11*
%TO.C,J1*%
X113375000Y-101482500D02*
X107375000Y-101482500D01*
X113375000Y-91502500D02*
X107375000Y-91502500D01*
X113375000Y-101602500D02*
X107375000Y-101602500D01*
X116432071Y-91502500D02*
X116035000Y-91502500D01*
X113375000Y-96582500D02*
X107375000Y-96582500D01*
X116432071Y-93282500D02*
X116035000Y-93282500D01*
X113375000Y-102612500D02*
X116035000Y-102612500D01*
X113375000Y-99122500D02*
X107375000Y-99122500D01*
X116365000Y-100902500D02*
X116035000Y-100902500D01*
X107375000Y-100902500D02*
X113375000Y-100902500D01*
X107375000Y-96582500D02*
X107375000Y-95822500D01*
X107375000Y-93282500D02*
X113375000Y-93282500D01*
X107375000Y-101662500D02*
X107375000Y-100902500D01*
X118745000Y-102552500D02*
X117475000Y-102552500D01*
X116432071Y-96582500D02*
X116035000Y-96582500D01*
X118745000Y-101282500D02*
X118745000Y-102552500D01*
X107375000Y-94042500D02*
X107375000Y-93282500D01*
X113375000Y-101242500D02*
X107375000Y-101242500D01*
X113375000Y-101122500D02*
X107375000Y-101122500D01*
X116432071Y-95822500D02*
X116035000Y-95822500D01*
X116035000Y-102612500D02*
X116035000Y-89792500D01*
X107375000Y-99122500D02*
X107375000Y-98362500D01*
X107375000Y-91502500D02*
X107375000Y-90742500D01*
X113375000Y-101662500D02*
X107375000Y-101662500D01*
X116432071Y-98362500D02*
X116035000Y-98362500D01*
X116432071Y-94042500D02*
X116035000Y-94042500D01*
X116035000Y-100012500D02*
X113375000Y-100012500D01*
X113375000Y-89792500D02*
X113375000Y-102612500D01*
X113375000Y-94042500D02*
X107375000Y-94042500D01*
X116035000Y-89792500D02*
X113375000Y-89792500D01*
X116365000Y-101662500D02*
X116035000Y-101662500D01*
X107375000Y-95822500D02*
X113375000Y-95822500D01*
X116035000Y-92392500D02*
X113375000Y-92392500D01*
X116432071Y-90742500D02*
X116035000Y-90742500D01*
X113375000Y-101362500D02*
X107375000Y-101362500D01*
X116035000Y-94932500D02*
X113375000Y-94932500D01*
X107375000Y-98362500D02*
X113375000Y-98362500D01*
X107375000Y-90742500D02*
X113375000Y-90742500D01*
X116432071Y-99122500D02*
X116035000Y-99122500D01*
X116035000Y-97472500D02*
X113375000Y-97472500D01*
X113375000Y-101002500D02*
X107375000Y-101002500D01*
%TO.C,J5*%
X114552500Y-85572500D02*
X116882500Y-85572500D01*
X119712500Y-83047500D02*
X119712500Y-88187500D01*
X114552500Y-82972500D02*
X115882500Y-82972500D01*
X114552500Y-84302500D02*
X114552500Y-82972500D01*
X117052500Y-85777500D02*
X117052500Y-88187500D01*
X117052500Y-83047500D02*
X119712500Y-83047500D01*
X117052500Y-88187500D02*
X119712500Y-88187500D01*
%TO.C,SW1*%
X145465000Y-109382500D02*
X138965000Y-109382500D01*
X138965000Y-108882500D02*
X138965000Y-109382500D01*
X145465000Y-105882500D02*
X145465000Y-106302500D01*
X138965000Y-105882500D02*
X138965000Y-106382500D01*
X145465000Y-108882500D02*
X145465000Y-109382500D01*
X145465000Y-105882500D02*
X138965000Y-105882500D01*
%TO.C,U2*%
X137900000Y-86982500D02*
X141500000Y-86982500D01*
X141538478Y-86970978D02*
G75*
G03*
X139700000Y-82532500I-1838478J1838478D01*
G01*
X139700000Y-82532499D02*
G75*
G03*
X137861522Y-86970978I0J-2600001D01*
G01*
%TO.C,U1*%
X128707508Y-83447504D02*
X127057508Y-83447504D01*
X125057508Y-83447504D02*
X123407508Y-83447504D01*
X123407508Y-83447504D02*
X123407508Y-108967504D01*
X128707508Y-108967504D02*
X128707508Y-83447504D01*
X123407508Y-108967504D02*
X128707508Y-108967504D01*
X125057508Y-83447504D02*
G75*
G03*
X127057508Y-83447504I1000000J0D01*
G01*
D10*
%TO.C,J2*%
X147225000Y-89520000D02*
X147225000Y-103520000D01*
X136625000Y-103520000D02*
X149125000Y-103520000D01*
X149125000Y-103520000D02*
X149125000Y-89520000D01*
X149125000Y-89520000D02*
X136625000Y-89520000D01*
X136625000Y-89520000D02*
X136625000Y-103520000D01*
D11*
%TO.C,D1*%
X132655000Y-83442500D02*
X133985000Y-83442500D01*
X135315000Y-86042500D02*
X135315000Y-88642500D01*
X132655000Y-86042500D02*
X132655000Y-88642500D01*
X132655000Y-84772500D02*
X132655000Y-83442500D01*
X132655000Y-88642500D02*
X135315000Y-88642500D01*
X132655000Y-86042500D02*
X135315000Y-86042500D01*
%TO.C,J3*%
X134997500Y-107627500D02*
X134997500Y-108957500D01*
X134997500Y-106357500D02*
X134997500Y-96137500D01*
X134997500Y-108957500D02*
X133667500Y-108957500D01*
X134997500Y-96137500D02*
X132337500Y-96137500D01*
X132337500Y-106357500D02*
X132337500Y-96137500D01*
X134997500Y-106357500D02*
X132337500Y-106357500D01*
%TO.C,J4*%
X147697500Y-85090000D02*
X147697500Y-87690000D01*
X145037500Y-85090000D02*
X145037500Y-87690000D01*
X145037500Y-87690000D02*
X147697500Y-87690000D01*
X145037500Y-85090000D02*
X147697500Y-85090000D01*
X145037500Y-82490000D02*
X146367500Y-82490000D01*
X145037500Y-83820000D02*
X145037500Y-82490000D01*
%TO.C,D2*%
X119440000Y-103762500D02*
X116780000Y-103762500D01*
X119440000Y-107632500D02*
X119440000Y-108962500D01*
X119440000Y-106362500D02*
X116780000Y-106362500D01*
X119440000Y-106362500D02*
X119440000Y-103762500D01*
X119440000Y-108962500D02*
X118110000Y-108962500D01*
X116780000Y-106362500D02*
X116780000Y-103762500D01*
%TD*%
M02*
