M48
; DRILL file {KiCad (6.0.0)} date Thu Oct 20 13:46:29 2022
; FORMAT={-:-/ absolute / inch / decimal}
; #@! TF.CreationDate,2022-10-20T13:46:29-04:00
; #@! TF.GenerationSoftware,Kicad,Pcbnew,(6.0.0)
; #@! TF.FileFunction,Plated,1,2,PTH
FMAT,2
INCH
; #@! TA.AperFunction,Plated,PTH,ViaDrill
T1C0.0157
; #@! TA.AperFunction,Plated,PTH,ComponentDrill
T2C0.0295
; #@! TA.AperFunction,Plated,PTH,ComponentDrill
T3C0.0315
; #@! TA.AperFunction,Plated,PTH,ComponentDrill
T4C0.0354
; #@! TA.AperFunction,Plated,PTH,ComponentDrill
T5C0.0394
; #@! TA.AperFunction,Plated,PTH,ComponentDrill
T6C0.0500
; #@! TA.AperFunction,Plated,PTH,ComponentDrill
T7C0.0787
; #@! TA.AperFunction,Plated,PTH,ComponentDrill
T8C0.0866
%
G90
G05
T1
X4.6625Y-3.5125
X5.0106Y-3.4894
T2
X5.45Y-3.3517
X5.5Y-3.3517
X5.55Y-3.3517
T3
X4.8129Y-3.3377
X4.8129Y-3.4377
X4.8129Y-3.5377
X4.8129Y-3.6377
X4.8129Y-3.7377
X4.8129Y-3.8377
X4.8129Y-3.9377
X4.8129Y-4.0377
X4.8129Y-4.1377
X4.8129Y-4.2377
X5.1129Y-3.3377
X5.1129Y-3.4377
X5.1129Y-3.5377
X5.1129Y-3.6377
X5.1129Y-3.7377
X5.1129Y-3.8377
X5.1129Y-3.9377
X5.1129Y-4.0377
X5.1129Y-4.1377
X5.1129Y-4.2377
T4
X5.438Y-3.6661
X5.438Y-3.9339
X5.5364Y-3.6661
X5.5364Y-3.7488
X5.5364Y-3.8512
X5.5364Y-3.9339
T5
X4.5623Y-3.319
X4.625Y-3.5875
X4.625Y-3.6875
X4.625Y-3.7875
X4.625Y-3.8875
X4.625Y-3.9875
X4.65Y-4.1375
X4.65Y-4.2375
X4.6607Y-3.3196
X4.6607Y-3.4196
X5.2625Y-3.8373
X5.2625Y-3.9373
X5.2625Y-4.0373
X5.2625Y-4.1373
X5.2625Y-4.2373
X5.275Y-3.3375
X5.275Y-3.4375
X5.438Y-3.6031
X5.438Y-3.9969
X5.7372Y-3.7016
X5.7372Y-3.8984
X5.7625Y-3.3
X5.7625Y-3.4
T6
X5.475Y-4.2375
X5.727Y-4.2375
T7
X5.6545Y-3.5244
X5.6545Y-4.0756
T8
X5.686Y-3.8
T0
M30
